<svg xmlns="http://www.w3.org/2000/svg" viewBox="0 0 400 300" data-imageid="science-discovery-flatline" imageName="Science discovery" class="illustrations_image" style="width: 188px;"><g id="_467_science_discovery_flatline" data-name="#467_science_discovery_flatline"><path d="M164.7,43.52c-1.89-4.49-7.46-6.48-12.27-5.73s-9,3.62-12.87,6.54c-6.84,5.12-13.51,10.8-17.81,18.18s-7.08,14.81-11.71,22c-5.79,8.94-12.16,18.38-22,22.43-6.79,2.8-15.6,3.45-19,10-3.7,7.16,2.14,16.58-1.6,23.73C65.15,145,60,147,56,150c-7.67,5.77-11.08,15.93-10.76,25.52s3.9,18.77,8,27.46c3.35,7.14,7.18,14.25,13,19.58,7.13,6.54,16.62,9.83,26,12.21,11.23,2.84,22.89,4.61,34.42,3.41s23-5.59,31.23-13.72c11-10.82,15.24-26.9,25.42-38.5,7.32-8.34,17.69-14.14,23.54-23.76a117.88,117.88,0,0,0,14-34.74c5-22-1.51-44.81-8-66.43-1.33-4.43-2.69-9-5.36-12.74C199.87,37.34,184.06,36,171,38.65,168.14,39.21,164.74,40.64,164.7,43.52Z" fill="#fff"/><path d="M119.06,239a109.71,109.71,0,0,1-27-3.82c-8.72-2.21-18.67-5.39-26.22-12.32-5.94-5.44-9.82-12.71-13.12-19.74-3.77-8-7.68-17.63-8-27.65-.36-10.8,3.73-20.5,11-25.94,1.2-.9,2.51-1.72,3.78-2.5,3.07-1.91,6-3.71,7.54-6.7,1.8-3.44,1.29-7.4.76-11.59s-1.08-8.43.84-12.14c2.56-5,8.12-6.65,13.51-8.28,1.92-.58,3.91-1.18,5.71-1.92,9.31-3.83,15.37-12.34,21.78-22.24a118.31,118.31,0,0,0,6.67-12.3c1.56-3.17,3.17-6.45,5-9.64,4.46-7.65,11.57-13.56,17.94-18.33,3.9-2.93,8.13-5.85,13.09-6.63,4.25-.66,9.65.81,12.14,4.75,1.06-2.54,4.68-3.55,6.37-3.89,6.2-1.26,27.21-4.25,37.12,9.82,2.74,3.88,4.11,8.45,5.43,12.88,6.15,20.61,13.13,44,8,66.68a118.48,118.48,0,0,1-14.1,34.89c-3.54,5.83-8.78,10.32-13.85,14.66a96.13,96.13,0,0,0-9.75,9.17c-4.7,5.36-8.19,11.81-11.57,18-3.91,7.21-7.94,14.65-13.87,20.49-7.74,7.62-18.94,12.54-31.53,13.85A73.41,73.41,0,0,1,119.06,239ZM154.4,38.14a11.67,11.67,0,0,0-1.89.15c-4.74.74-8.85,3.59-12.66,6.44-6.6,5-13.31,10.56-17.67,18-1.84,3.16-3.44,6.43-5,9.58a118.57,118.57,0,0,1-6.73,12.4c-6.5,10.05-12.67,18.68-22.24,22.62-1.84.76-3.85,1.37-5.8,2C77,111,71.87,112.51,69.5,117.1c-1.77,3.44-1.27,7.38-.73,11.56s1.08,8.45-.86,12.17c-1.69,3.24-4.85,5.19-7.9,7.09-1.25.77-2.55,1.58-3.71,2.45-7,5.24-10.91,14.63-10.56,25.1.34,9.85,4.2,19.31,7.93,27.27,3.25,6.94,7.07,14.1,12.89,19.43,7.39,6.77,17.18,9.91,25.79,12.08,13.31,3.37,24.19,4.45,34.24,3.4,12.37-1.29,23.36-6.11,30.94-13.57,5.82-5.74,9.82-13.12,13.69-20.25,3.4-6.29,6.93-12.78,11.7-18.23a95.86,95.86,0,0,1,9.85-9.27c5-4.29,10.18-8.73,13.65-14.42a117.65,117.65,0,0,0,14-34.59c5.1-22.45-1.83-45.68-8-66.18-1.3-4.34-2.64-8.84-5.28-12.59C197.6,35,177.11,37.91,171.06,39.14c-1.75.35-5.82,1.48-5.86,4.38a.51.51,0,0,1-.41.49.5.5,0,0,1-.55-.3C162.64,39.91,158.31,38.14,154.4,38.14Z" fill="#231f20"/><path d="M229.94,146.55c34.76,20.71,70.71,116,70.71,116H133.94S80.15,167.89,104,146.86C119.87,132.94,215.25,137.8,229.94,146.55Z" fill="#fe8e86" class="target-color"/><path d="M218.46,263a.49.49,0,0,1-.46-.32l-12.36-31a.5.5,0,0,1,.28-.65.49.49,0,0,1,.64.28l12.36,31a.49.49,0,0,1-.27.65A.65.65,0,0,1,218.46,263Z" fill="#231f20"/><path d="M268.57,263a.51.51,0,0,1-.44-.26c-.57-1-3.62-6.84-7.84-14.89-13.06-24.92-40.23-76.77-42.11-78.43a.47.47,0,0,1-.19-.65.53.53,0,0,1,.7-.21c1.16.59,12.68,21.95,42.48,78.82,4.22,8,7.27,13.87,7.83,14.88a.49.49,0,0,1-.19.67A.44.44,0,0,1,268.57,263Z" fill="#231f20"/><path d="M188.22,150.4l17.88,81.12s-55.79-70.89-59.44-92.05C158.7,127.18,188.22,150.4,188.22,150.4Z" fill="#231f20"/><path d="M206.1,232a.51.51,0,0,1-.39-.19c-.14-.18-14.12-18-28.37-38.11-19.15-27.09-29.64-45.32-31.17-54.16a.51.51,0,0,1,.13-.44c5.09-5.19,14-4.93,25.87.76A99.92,99.92,0,0,1,188.53,150a.53.53,0,0,1,.18.28l17.88,81.12a.5.5,0,0,1-.28.56A.54.54,0,0,1,206.1,232Zm-58.9-92.38c3.63,19.24,49.44,78.89,57.94,89.84l-17.37-78.8C185.58,149,158.49,128.63,147.2,139.64Z" fill="#231f20"/><path d="M189.23,127l-1,23.38s-8.66,13.5-23.2,8.16a30.85,30.85,0,0,1-18.36-19.09l5.05-42.18S164,86.48,163.49,62a81.42,81.42,0,0,0,39.59,10.14S205,105,201.87,116.37,189.23,127,189.23,127Z" fill="#fff"/><path d="M171.68,160.3a19.71,19.71,0,0,1-6.84-1.27c-14.61-5.37-18.62-19.29-18.66-19.43a.58.58,0,0,1,0-.19l5.05-42.18a.47.47,0,0,1,.16-.31C151.5,96.81,163.46,86,163,62a.5.5,0,0,1,.25-.44.49.49,0,0,1,.51,0,81.78,81.78,0,0,0,39.32,10.06.47.47,0,0,1,.51.47c.08,1.34,1.9,33.05-1.23,44.37-2.79,10.1-10.56,11-12.64,11l-1,22.9a.44.44,0,0,1-.08.25C188.57,150.79,182.31,160.3,171.68,160.3Zm-24.51-20.87c.37,1.19,4.51,13.7,18,18.66,13.32,4.9,21.68-6.6,22.54-7.85l1-23.25a.53.53,0,0,1,.17-.35.49.49,0,0,1,.37-.12c.37,0,9.13.54,12.12-10.28,2.88-10.43,1.44-39.5,1.22-43.58h-.35A83.54,83.54,0,0,1,164,62.89c.09,12.28-3.07,21-5.78,26.17a32.6,32.6,0,0,1-6,8.47Zm41.05,11h0Z" fill="#231f20"/><path d="M157.39,96.93a9.93,9.93,0,0,0-2.71-5.6,17.18,17.18,0,0,0-4.94-3.24,7.17,7.17,0,0,0-3.09-.94,6,6,0,0,0-2.22.53,7.65,7.65,0,0,0-4,3.37,9,9,0,0,0-.69,4.25,18,18,0,0,0,.63,4.68,11.91,11.91,0,0,0,15,8" fill="#fff"/><path d="M151.77,109a12.38,12.38,0,0,1-11.92-8.88,18.33,18.33,0,0,1-.65-4.81,9.49,9.49,0,0,1,.74-4.48,8,8,0,0,1,4.3-3.61,6.67,6.67,0,0,1,2.41-.57,7.46,7.46,0,0,1,3.31,1A17.59,17.59,0,0,1,155,91a10.3,10.3,0,0,1,2.85,5.89.5.5,0,0,1-1,.13,9.3,9.3,0,0,0-2.57-5.33,17.07,17.07,0,0,0-4.8-3.13,6.74,6.74,0,0,0-2.86-.89h0a5.48,5.48,0,0,0-2,.49,7.28,7.28,0,0,0-3.78,3.13,8.55,8.55,0,0,0-.64,4,17.33,17.33,0,0,0,.61,4.55,11.4,11.4,0,0,0,14.34,7.65.5.5,0,1,1,.3,1A12.43,12.43,0,0,1,151.77,109Z" fill="#231f20"/><path d="M186,105.51a15.7,15.7,0,0,1-4.4-.77.5.5,0,1,1,.33-.95c1.35.46,5.17,1.37,6.65,0,1.08-1-1.75-7.86-5-13.65a.5.5,0,0,1,.19-.68.51.51,0,0,1,.68.2c1.67,3,6.95,12.86,4.8,14.86A4.74,4.74,0,0,1,186,105.51Z" fill="#231f20"/><path d="M168.26,215.83a.49.49,0,0,1-.41-.21c-.15-.22-16-22.15-34.32-49.9a.5.5,0,0,1,.14-.69.51.51,0,0,1,.69.14c18.35,27.74,34.14,49.65,34.3,49.87a.5.5,0,0,1-.11.69A.46.46,0,0,1,168.26,215.83Z" fill="#231f20"/><path d="M183.44,118.54a10.15,10.15,0,0,1-2.45-.31c-9.66-2.31-9.58-14.07-9.58-14.19a.51.51,0,0,1,.5-.5h0a.5.5,0,0,1,.49.51c0,.11-.06,11.08,8.82,13.21a7.69,7.69,0,0,0,6.11-.84c3.86-2.44,5.09-8.1,5.11-8.16a.5.5,0,0,1,.59-.39.49.49,0,0,1,.38.59c0,.25-1.32,6.13-5.54,8.8A8.15,8.15,0,0,1,183.44,118.54Z" fill="#231f20"/><path d="M189.23,127s-14.5.3-23.32-11.15c0,0,4.5,23.28,22.71,25.15Z" fill="#231f20"/><path d="M188.62,141.52h-.05c-18.37-1.89-23.11-25.32-23.15-25.56a.49.49,0,0,1,.88-.39c8.56,11.1,22.77,10.94,22.92,11a.51.51,0,0,1,.37.15.5.5,0,0,1,.14.37l-.61,14a.5.5,0,0,1-.18.36A.47.47,0,0,1,188.62,141.52Zm-21.7-23.67c1.59,5.62,7.18,20.81,21.22,22.62l.57-13C186.15,127.42,174.84,126.56,166.92,117.85Z" fill="#231f20"/><path d="M148.54,255a.49.49,0,0,1-.32-.12c-.24-.21-24.16-21.13-39.79-51.28a.49.49,0,1,1,.88-.45c15.54,30,39.32,50.77,39.56,51a.49.49,0,0,1,0,.7A.52.52,0,0,1,148.54,255Z" fill="#231f20"/><ellipse cx="174.45" cy="80.83" rx="1.76" ry="3.66" fill="#231f20"/><ellipse cx="194.54" cy="84.52" rx="3.66" ry="1.76" transform="matrix(0.04, -1, 1, 0.04, 101.91, 275.34)" fill="#231f20"/><path d="M144.47,230.08c11.44-12.38,90-49,97.18-54.72s7.22-10.18,16.71-12.83,24.61-7.83,26.09-6.2.48,5.81-1.8,7.75-8.22,3.38-10.35,5.37h0s12.34,2.22,16.32.16,10.78-7.44,14.28-8a11.38,11.38,0,0,1,6.49,1.06s4.46-3.08,6.05-.74c1.06,1.55.22,3.38-1.08,4.47,2.95-.92.9,2.86.32,3.92-15.32,27.8-51.25,21.57-56.66,21.87,0,0-17.19,15.06-20.92,18.62-9.28,8.87-18.76,17.53-28.63,25.73-10.79,9-22.67,19.15-36.09,23.9C144.64,270.29,133,242.47,144.47,230.08Z" fill="#fff"/><path d="M161.29,263c-7.65,0-14.07-3.21-18.13-9.35-5.1-7.74-4.7-17.79,1-23.9h0c7.38-8,42.59-26.05,68.3-39.23,14.17-7.25,26.4-13.52,28.93-15.55a43.08,43.08,0,0,0,5.55-5.47c2.81-3.18,5-5.69,11.34-7.45,2.25-.63,4.78-1.39,7.45-2.19,12.1-3.63,17.93-5.2,19.14-3.87a4,4,0,0,1,.81,3,8.32,8.32,0,0,1-2.65,5.48,21.88,21.88,0,0,1-5.2,2.68,31.32,31.32,0,0,0-4.24,2c3.13.49,11.76,1.63,14.85,0,1.39-.72,3.14-1.86,5-3.06,3.48-2.26,7.08-4.6,9.44-5a11.79,11.79,0,0,1,6.53,1c.76-.48,3.1-1.82,4.9-1.48a2.45,2.45,0,0,1,1.61,1,3.54,3.54,0,0,1-.28,4.18,1,1,0,0,1,.56.36c.58.7.26,2.05-1,4.38-13.52,24.53-42.69,22.87-53.67,22.25-1.41-.08-2.55-.14-3.23-.12-1.61,1.41-17.27,15.13-20.78,18.48-10.44,10-19.81,18.41-28.65,25.76l-1.39,1.15c-10.28,8.55-21.93,18.25-34.86,22.83A33.73,33.73,0,0,1,161.29,263ZM283.23,156.47c-2.78,0-11.33,2.57-17.26,4.35-2.68.8-5.21,1.56-7.48,2.19-6,1.68-8.15,4.1-10.85,7.15a43.18,43.18,0,0,1-5.68,5.59c-2.61,2.09-14.29,8.08-29.09,15.66-25.65,13.15-60.77,31.15-68,39h0c-5.34,5.79-5.69,15.32-.84,22.68,5.65,8.57,16.2,11.14,28.21,6.88,12.76-4.52,24.34-14.16,34.55-22.66l1.39-1.15c8.82-7.33,18.17-15.74,28.6-25.71,3.7-3.53,20.77-18.48,20.94-18.63a.48.48,0,0,1,.3-.13c.72,0,1.89,0,3.51.12,10.82.62,39.53,2.24,52.74-21.74,1.51-2.73,1.14-3.24,1.13-3.26s-.26-.12-.86.07A.5.5,0,0,1,314,166c1.14-.95,1.88-2.5,1-3.81a1.43,1.43,0,0,0-1-.62c-1.43-.27-3.65,1-4.39,1.49a.49.49,0,0,1-.52,0,10.85,10.85,0,0,0-6.17-1c-2.15.34-5.82,2.72-9.05,4.83-1.87,1.22-3.64,2.37-5.08,3.11-3.82,2-14.56.25-16.39-.07l-.76.71A.5.5,0,1,1,271,170l.94-.88a20.36,20.36,0,0,1,5.43-2.87,21.27,21.27,0,0,0,4.94-2.51,7.25,7.25,0,0,0,2.3-4.79,3.07,3.07,0,0,0-.55-2.25A1.29,1.29,0,0,0,283.23,156.47ZM144.47,230.08h0Z" fill="#231f20"/><path d="M309.39,162.68s-5.79,7.4-17.48,12.7" fill="#fff"/><path d="M291.91,175.88a.52.52,0,0,1-.46-.29.5.5,0,0,1,.25-.66c11.43-5.19,17.23-12.49,17.29-12.56a.5.5,0,0,1,.7-.09.51.51,0,0,1,.09.71c-.06.07-6,7.56-17.67,12.85A.45.45,0,0,1,291.91,175.88Z" fill="#231f20"/><path d="M314.36,166.41s-10.3,13.25-17.68,14.41" fill="#fff"/><path d="M296.68,181.32a.5.5,0,0,1-.08-1c7.1-1.12,17.26-14.09,17.36-14.23a.52.52,0,0,1,.71-.08.5.5,0,0,1,.08.7c-.42.55-10.51,13.42-18,14.6Z" fill="#231f20"/><path d="M229.78,218.23a.49.49,0,0,1-.47-.34c-.07-.18-6.56-18.19-20.4-24.66a.5.5,0,0,1-.24-.67.5.5,0,0,1,.66-.24c14.23,6.65,20.86,25.06,20.92,25.24a.5.5,0,0,1-.3.64Z" fill="#231f20"/><path d="M173.6,90.26a8.77,8.77,0,0,1-1-.06L165,89.32a8.8,8.8,0,0,1-7.74-9.76l.51-4.44a3.24,3.24,0,0,1,1.2-2.16,3.28,3.28,0,0,1,2.38-.68L180,74.44A3.25,3.25,0,0,1,182.84,78l-.51,4.45a8.8,8.8,0,0,1-8.73,7.79ZM160.92,73.33a2.18,2.18,0,0,0-2.14,1.91l-.51,4.45a7.73,7.73,0,0,0,6.8,8.57l7.62.88h0a7.73,7.73,0,0,0,8.57-6.8l.52-4.44a2.17,2.17,0,0,0-1.9-2.39l-18.7-2.16Z" fill="#231f20"/><path d="M198.42,93.22a8.68,8.68,0,0,1-1-.06h0l-7.63-.88a8.8,8.8,0,0,1-7.73-9.76l.51-4.44a3.23,3.23,0,0,1,3.58-2.84l18.7,2.16A3.24,3.24,0,0,1,207,78.6a3.2,3.2,0,0,1,.68,2.38l-.52,4.44A8.81,8.81,0,0,1,198.42,93.22Zm-.89-1.12a7.74,7.74,0,0,0,8.57-6.8l.51-4.44a2.15,2.15,0,0,0-1.89-2.39L186,76.31a2.1,2.1,0,0,0-1.58.45,2.14,2.14,0,0,0-.81,1.44l-.51,4.45a7.73,7.73,0,0,0,6.8,8.57Z" fill="#231f20"/><path d="M280.16,125.66c-7.46-1.2-7.33-2.3-8.06-6.55-1.33-7.66-5.15-14-9.15-20.5-14.83-24.1-3.26-56.25,28.7-56.85,21.67-.41,37.48,13.57,37.78,34.65a38.55,38.55,0,0,1-10.74,27.38c-4.82,5.2-9,10.59-11.21,17.41-1.45,4.4-1.54,7.12-9.47,5.85-2.87-.47-5.8-.48-8.71-.7S283.18,126.15,280.16,125.66Z" fill="#fff"/><path d="M301.34,127.72a22,22,0,0,1-3.39-.31,55.75,55.75,0,0,0-5.89-.52c-.93,0-1.86-.1-2.78-.17s-2.07-.13-3.11-.18a54.4,54.4,0,0,1-6.07-.51c-7.13-1.15-7.57-2.18-8.28-6.35l-.09-.51c-1.34-7.75-5.28-14.17-9.1-20.37-7.79-12.67-8.59-28-2.07-39.88,6-11,17.07-17.27,31.08-17.53,11.07-.22,21,3.37,27.93,10.08,6.55,6.34,10.09,15,10.23,24.93A39.23,39.23,0,0,1,319,104c-4.17,4.5-8.76,10.08-11.13,17.28l-.34,1.06C306.52,125.49,305.81,127.72,301.34,127.72Zm-8.78-85.6h-.9c-13.73.26-24.55,6.35-30.45,17.14C254.82,71,255.6,86,263.26,98.42c3.85,6.25,7.83,12.73,9.2,20.62l.09.52c.63,3.74.78,4.63,7.67,5.74h0a54.77,54.77,0,0,0,6,.5c1,0,2.08.1,3.12.18s1.84.12,2.77.17a55.13,55.13,0,0,1,6,.53c6.94,1.12,7.54-.76,8.71-4.52.11-.34.22-.7.35-1.07,2.41-7.34,7.06-13,11.29-17.55a38,38,0,0,0,10.64-27.13c-.14-9.77-3.6-18.21-10-24.41C312.45,45.61,303.07,42.12,292.56,42.12Z" fill="#231f20"/><rect x="273.44" y="126.38" width="31.16" height="8.85" rx="2.04" transform="translate(567.08 283.55) rotate(-175.57)" fill="#fff"/><path d="M302.34,136.64h-.19l-27-2.09a2.4,2.4,0,0,1-2.21-2.59l.37-4.75a2.34,2.34,0,0,1,.83-1.65,2.39,2.39,0,0,1,1.76-.57l27,2.09a2.42,2.42,0,0,1,2.22,2.59l-.37,4.76A2.42,2.42,0,0,1,302.34,136.64Zm-26.63-10.93a1.67,1.67,0,0,0-1.67,1.54l-.37,4.76a1.68,1.68,0,0,0,1.54,1.79h0l27,2.1a1.67,1.67,0,0,0,1.79-1.54l.37-4.76a1.67,1.67,0,0,0-1.54-1.79l-27-2.09Z" fill="#231f20"/><rect x="272.76" y="135.21" width="31.16" height="8.85" rx="2.04" transform="matrix(-1, -0.08, 0.08, -1, 565.03, 301.12)" fill="#fff"/><path d="M301.65,145.47h-.19l-27-2.09h0a2.43,2.43,0,0,1-2.22-2.59l.37-4.76a2.43,2.43,0,0,1,2.59-2.22l27,2.1a2.4,2.4,0,0,1,2.21,2.59l-.37,4.75a2.4,2.4,0,0,1-.83,1.65A2.43,2.43,0,0,1,301.65,145.47ZM275,134.54a1.67,1.67,0,0,0-1.66,1.54l-.37,4.75a1.69,1.69,0,0,0,.4,1.22,1.67,1.67,0,0,0,1.14.58h0l27,2.09a1.68,1.68,0,0,0,1.8-1.54l.37-4.75a1.68,1.68,0,0,0-1.54-1.8l-27-2.09Z" fill="#231f20"/><path d="M276,143.11c-.26,3.33,4.93,6.44,11.58,7S299.78,148.3,300,145Z" fill="#231f20"/><path d="M289.4,150.51c-.62,0-1.26,0-1.9-.07A20,20,0,0,1,279,148c-2.32-1.39-3.51-3.12-3.38-4.88a.39.39,0,0,1,.4-.34l24.09,1.87a.36.36,0,0,1,.34.39c-.14,1.76-1.59,3.29-4.09,4.3A18.67,18.67,0,0,1,289.4,150.51Zm-13.08-7c.07,1.34,1.13,2.68,3,3.82a21.14,21.14,0,0,0,16.7,1.29c2-.83,3.3-2,3.58-3.31Z" fill="#231f20"/><circle cx="276.71" cy="63.22" r="4.49" fill="#d1d3d4"/><circle cx="293.62" cy="70.35" r="4.49" fill="#d1d3d4"/><circle cx="282.88" cy="81.37" r="4.49" fill="#d1d3d4"/><circle cx="295.09" cy="92.85" r="4.49" fill="#d1d3d4"/><circle cx="303.22" cy="105.2" r="4.49" fill="#d1d3d4"/><circle cx="303.34" cy="81.97" r="4.49" fill="#d1d3d4"/><circle cx="316.66" cy="85.86" r="4.49" fill="#d1d3d4"/><circle cx="288.93" cy="105.3" r="4.49" fill="#d1d3d4"/><circle cx="276.71" cy="97.12" r="4.49" fill="#d1d3d4"/><circle cx="305.44" cy="64.68" r="4.49" fill="#d1d3d4"/><path d="M293.62,71.17a.8.8,0,0,1-.3-.06L275.57,64a.81.81,0,1,1,.6-1.51l17.45,7,13.58-5.29a.81.81,0,0,1,1.05.47.8.8,0,0,1-.46,1l-13.87,5.4A.8.8,0,0,1,293.62,71.17Z" fill="#d1d3d4"/><path d="M288.93,106.11a.87.87,0,0,1-.41-.11.81.81,0,0,1-.29-1.11L295.1,93,282.35,82a.84.84,0,0,1-.29-.58.84.84,0,0,1,.23-.61l10.75-11a.82.82,0,0,1,1.15,0,.81.81,0,0,1,0,1.15l-10.14,10.4,12.61,10.85a.81.81,0,0,1,.17,1l-7.2,12.51A.84.84,0,0,1,288.93,106.11Z" fill="#d1d3d4"/><path d="M275.87,97.93a.82.82,0,0,1-.18-1.61l18.93-4.2,8.07-10.64a.8.8,0,0,1,.89-.28L316,85.08a.82.82,0,0,1,.54,1,.81.81,0,0,1-1,.53l-11.92-3.71-7.91,10.42a.75.75,0,0,1-.47.3l-19.21,4.27Z" fill="#d1d3d4"/><path d="M290,106.88a.81.81,0,0,1-.81-.8.8.8,0,0,1,.79-.82l13.29-.27a.78.78,0,0,1,.83.79.82.82,0,0,1-.8.83l-13.28.27Z" fill="#d1d3d4"/><path d="M247.54,56.87l-.12,0-18.87-5a.49.49,0,0,1-.35-.61.48.48,0,0,1,.61-.35l18.86,5a.5.5,0,0,1-.13,1Z" fill="#d1d3d4"/><path d="M241.2,129a.5.5,0,0,1-.41-.22.49.49,0,0,1,.13-.69l13.51-9.27a.5.5,0,1,1,.57.82l-13.52,9.27A.47.47,0,0,1,241.2,129Z" fill="#d1d3d4"/><path d="M231.35,90.72a.5.5,0,0,1-.07-1c1.94-.24,11.67-1.45,12.53-1.31a.5.5,0,0,1,.42.57.49.49,0,0,1-.57.41c-.67-.07-7.86.77-12.25,1.32Z" fill="#d1d3d4"/><path d="M336.27,57.83a.5.5,0,0,1-.23-.95l13.51-6.94a.51.51,0,0,1,.68.22.5.5,0,0,1-.22.67l-13.52,6.94A.46.46,0,0,1,336.27,57.83Z" fill="#d1d3d4"/><path d="M354.78,102.17h-.09L336.17,98.7a.5.5,0,0,1-.4-.58.51.51,0,0,1,.59-.4l18.51,3.46a.5.5,0,0,1,.4.58A.51.51,0,0,1,354.78,102.17Z" fill="#d1d3d4"/><path d="M331.27,137.22a.53.53,0,0,1-.24-.06l-13-7a.5.5,0,0,1,.48-.88l13,7a.5.5,0,0,1,.21.68A.51.51,0,0,1,331.27,137.22Z" fill="#d1d3d4"/><path d="M322.67,68.21a.49.49,0,0,1-.48-.36C317.26,51.49,296.24,46.42,296,46.37a.5.5,0,0,1,.23-1c.22,0,21.8,5.25,26.89,22.17a.51.51,0,0,1-.33.63Z" fill="#d1d3d4"/><path d="M323.64,75.38a.5.5,0,0,1-.48-.39l-.83-3.51a.5.5,0,0,1,.37-.6.49.49,0,0,1,.6.37l.83,3.52a.51.51,0,0,1-.37.6Z" fill="#d1d3d4"/></g></svg>