<svg xmlns="http://www.w3.org/2000/svg" viewBox="0 0 400 300" data-imageid="wallet-outline-f64a9" imageName="Wallet" class="illustrations_image" style="width: 188px;"><g id="_34_wallet_outline" data-name="#34_wallet_outline"><path d="M133.78,118.11H255.57a6.28,6.28,0,0,1,6.28,6.28v13.13a0,0,0,0,1,0,0H133.78a9.7,9.7,0,0,1-9.7-9.7v0a9.7,9.7,0,0,1,9.7-9.7Z" fill="#093f68"/><path d="M261.84,138.51H133.78a10.7,10.7,0,1,1,0-21.4H255.57a7.28,7.28,0,0,1,7.27,7.27v13.13A1,1,0,0,1,261.84,138.51Zm-128.06-19.4a8.7,8.7,0,1,0,0,17.4H260.84V124.38a5.27,5.27,0,0,0-5.27-5.27Z" fill="#093f68"/><rect x="135.71" y="93.8" width="109.43" height="58.72" transform="translate(-30.53 72.07) rotate(-19.87)" fill="#70cc40"/><path d="M149,170.38a1,1,0,0,1-.94-.66l-20-55.23a1,1,0,0,1,0-.76,1,1,0,0,1,.57-.52L231.56,76a1,1,0,0,1,.77,0,1,1,0,0,1,.51.56l20,55.23a1,1,0,0,1-.6,1.28l-102.91,37.2A1,1,0,0,1,149,170.38Zm-18.68-55.63,19.28,53.35,101-36.52L231.3,78.23Z" fill="#093f68"/><rect x="143.62" y="104.76" width="109.43" height="58.72" transform="translate(-22.71 42.12) rotate(-11.47)" fill="#70cc40"/><path d="M150.55,174.78a1,1,0,0,1-1-.8l-11.68-57.55a1,1,0,0,1,.14-.75,1,1,0,0,1,.64-.43L245.91,93.49a1,1,0,0,1,1.18.78l11.68,57.55a1,1,0,0,1-.15.75,1,1,0,0,1-.63.43L150.75,174.76ZM140.05,117l11.28,55.59,105.28-21.36-11.28-55.6Z" fill="#093f68"/><g id="OSrgHT"><path d="M194.28,119.07c.19,1,.39,1.92.57,2.89,0,.18.1.23.29.24a8.71,8.71,0,0,1,4.21,1,6.28,6.28,0,0,1,2.93,3.38c.15.39.27.8.4,1.22l-4.45.88a3.08,3.08,0,0,0-1-1.71,15.13,15.13,0,0,0-1.41-.81l-.06.08,1.1,5.55.5,0a16.09,16.09,0,0,1,3.72.43,5.17,5.17,0,0,1,3.87,3.63,6.79,6.79,0,0,1-.2,5.07,6.88,6.88,0,0,1-2.83,3.11c-.77.45-1.59.81-2.42,1.22l.42,2.16-4.1.81-.44-2.22c-.87-.06-1.7-.08-2.51-.19a7.06,7.06,0,0,1-4.2-2,6.87,6.87,0,0,1-1.81-3.6l4.39-.87a3.53,3.53,0,0,0,3.32,2.73q-.58-3-1.17-6c-.88-.07-1.76-.13-2.64-.23a6.37,6.37,0,0,1-3-1,5.11,5.11,0,0,1-2-2.48,7.16,7.16,0,0,1-.48-3.88A6.48,6.48,0,0,1,188.4,124a19.47,19.47,0,0,1,2.11-1l.26-.11-.59-3Zm4.41,22.26a3.66,3.66,0,0,0,1.68-1.16,2.42,2.42,0,0,0-.24-3.2,4.79,4.79,0,0,0-2.45-.74Zm-7.18-14.64a12.82,12.82,0,0,0-1.41,1.11,2.23,2.23,0,0,0,.4,3.39,4.85,4.85,0,0,0,2,.46Z" fill="#093f68"/></g><circle cx="150.06" cy="134.49" r="16.44" fill="#ffbc0e"/><path d="M150.06,151.94a17.45,17.45,0,1,1,17.44-17.45A17.46,17.46,0,0,1,150.06,151.94Zm0-32.89a15.45,15.45,0,1,0,15.44,15.44A15.46,15.46,0,0,0,150.06,119.05Z" fill="#093f68"/><path d="M179.55,101.65c-1.07-4-4.21-8.05-8.84-10.9S161,87,157,87.8l-2.73-1.68-3.53,5.76c-3.3,5.37.3,13.57,8,18.32s16.69,4.25,20-1.12l3.53-5.75Z" fill="#ffbc0e"/><path d="M169.54,114.46a21.93,21.93,0,0,1-11.29-3.4c-8.2-5-12-13.88-8.38-19.71l3.53-5.75a1,1,0,0,1,1.38-.33l2.4,1.48c4.39-.79,9.48.35,14,3.15s7.89,6.84,9.18,11.11l2.4,1.47a1.06,1.06,0,0,1,.45.62,1,1,0,0,1-.12.75l-3.54,5.75c-1.77,2.89-5,4.61-9.12,4.84Zm-14.95-27-3,4.9c-3,4.89.46,12.5,7.71,16.95a19.56,19.56,0,0,0,11.08,3.09c3.44-.19,6.11-1.57,7.53-3.88l3-4.9L179,102.51a1,1,0,0,1-.44-.59c-1.05-3.87-4.19-7.73-8.4-10.31s-9.07-3.65-13-2.83a1,1,0,0,1-.73-.13Z" fill="#093f68"/><ellipse cx="168.27" cy="94.73" rx="11.41" ry="16.44" transform="translate(-0.5 188.57) rotate(-58.45)" fill="#ffbc0e"/><path d="M173.05,108.69a21.81,21.81,0,0,1-11.27-3.39c-8.2-5-12-13.87-8.38-19.7s13.17-6.48,21.36-1.45,12,13.87,8.38,19.7h0C181.17,107.05,177.4,108.69,173.05,108.69Zm-9.61-26c-3.64,0-6.74,1.32-8.33,3.92-3,4.89.46,12.5,7.71,16.95s15.61,4.1,18.61-.79h0c3-4.9-.46-12.5-7.71-17A20.06,20.06,0,0,0,163.44,82.73Zm18.84,20.6h0Z" fill="#093f68"/><path d="M237.39,113.13c1.07-4,4.21-8,8.84-10.9s9.7-3.79,13.72-3l2.73-1.68,3.54,5.75c3.29,5.37-.31,13.58-8.05,18.33s-16.68,4.25-20-1.12l-3.53-5.75Z" fill="#ffbc0e"/><path d="M247.41,125.94l-.95,0c-4.11-.24-7.35-2-9.12-4.84l-3.53-5.75a1,1,0,0,1,.33-1.37l2.4-1.48c1.28-4.27,4.6-8.29,9.17-11.1s9.66-3.95,14-3.16l2.4-1.47a1,1,0,0,1,1.38.33l3.53,5.75c1.77,2.89,1.83,6.55.18,10.32a21.51,21.51,0,0,1-8.55,9.38A21.9,21.9,0,0,1,247.41,125.94ZM236,115.14l3,4.9c1.42,2.31,4.09,3.69,7.53,3.88a20.92,20.92,0,0,0,18.85-11.57c1.38-3.15,1.36-6.16-.06-8.47l-3-4.9-1.88,1.15a1,1,0,0,1-.73.13c-3.92-.82-8.78.24-13,2.82s-7.35,6.45-8.4,10.31a.94.94,0,0,1-.44.59Zm1.36-2h0Z" fill="#093f68"/><ellipse cx="248.67" cy="106.21" rx="16.44" ry="11.41" transform="translate(-18.82 145.8) rotate(-31.55)" fill="#ffbc0e"/><path d="M243.88,120.19c-.32,0-.64,0-.95,0-4.11-.23-7.35-1.94-9.12-4.83s-1.84-6.55-.18-10.32a22.88,22.88,0,0,1,20.79-12.76c4.11.23,7.35,1.94,9.12,4.83,3.58,5.83-.18,14.67-8.37,19.7A21.9,21.9,0,0,1,243.88,120.19Zm9.58-26a20,20,0,0,0-10.24,3.11,19.54,19.54,0,0,0-7.76,8.48c-1.39,3.16-1.37,6.17,0,8.48h0c1.42,2.31,4.09,3.68,7.53,3.88a19.54,19.54,0,0,0,11.08-3.09c7.26-4.46,10.72-12.06,7.71-17-1.42-2.31-4.09-3.69-7.53-3.89Z" fill="#093f68"/><path d="M269.8,145.47v69.62a8,8,0,0,1-8,8H138.21a14.14,14.14,0,0,1-14.14-14.14v-81.1a9.71,9.71,0,0,0,9.71,9.71H261.84A8,8,0,0,1,269.8,145.47Z" fill="#fe8e86" class="target-color"/><path d="M261.84,224.05H138.21a15.15,15.15,0,0,1-15.14-15.14v-81.1a1,1,0,0,1,2,0,8.72,8.72,0,0,0,8.71,8.71H261.84a9,9,0,0,1,9,8.95v69.62A9,9,0,0,1,261.84,224.05ZM125.07,134v74.88a13.16,13.16,0,0,0,13.14,13.14H261.84a7,7,0,0,0,7-7V145.47a7,7,0,0,0-7-6.95H133.78A10.68,10.68,0,0,1,125.07,134Z" fill="#093f68"/><path d="M245.78,170.52h30.15a0,0,0,0,1,0,0v26.42a0,0,0,0,1,0,0H245.78a8.69,8.69,0,0,1-8.69-8.69v-9A8.69,8.69,0,0,1,245.78,170.52Z" fill="#f56132"/><path d="M275.93,197.94H245.78a9.71,9.71,0,0,1-9.7-9.69v-9a9.71,9.71,0,0,1,9.7-9.69h30.15a1,1,0,0,1,1,1v26.42A1,1,0,0,1,275.93,197.94Zm-30.15-26.42a7.71,7.71,0,0,0-7.7,7.69v9a7.71,7.71,0,0,0,7.7,7.69h29.15V171.52Z" fill="#093f68"/><circle cx="250.44" cy="183.73" r="6.07" fill="#ffbc0e"/><path d="M250.44,190.8a7.07,7.07,0,1,1,7.07-7.07A7.08,7.08,0,0,1,250.44,190.8Zm0-12.14a5.07,5.07,0,1,0,5.07,5.07A5.07,5.07,0,0,0,250.44,178.66Z" fill="#093f68"/><path d="M145.34,224.05a1,1,0,0,1-1-1V137.52a1,1,0,0,1,2,0v85.53A1,1,0,0,1,145.34,224.05Z" fill="#093f68"/></g></svg>